<?xml version="1.0" encoding="UTF-8" standalone="no"?>
<!DOCTYPE svg PUBLIC "-//W3C//DTD SVG 1.1//EN"
 "http://www.w3.org/Graphics/SVG/1.1/DTD/svg11.dtd">
<!-- Generated by graphviz version 12.2.1 (0)
 -->
<!-- Title: G Pages: 1 -->
<svg width="610pt" height="260pt"
 viewBox="0.00 0.00 610.15 260.00" xmlns="http://www.w3.org/2000/svg" xmlns:xlink="http://www.w3.org/1999/xlink">
<g id="graph0" class="graph" transform="scale(1 1) rotate(0) translate(4 256)">
<title>G</title>
<polygon fill="white" stroke="none" points="-4,4 -4,-256 606.15,-256 606.15,4 -4,4"/>
<!-- zvs7lrrhcqdk4cnhfr48ddypz32c8344&#45;hello&#45;2.12.2.drv -->
<g id="node1" class="node">
<title>zvs7lrrhcqdk4cnhfr48ddypz32c8344&#45;hello&#45;2.12.2.drv</title>
<polygon fill="#ff0000" stroke="black" points="334.35,-36 205.85,-36 205.85,0 334.35,0 334.35,-36"/>
<text text-anchor="middle" x="270.1" y="-13.32" font-family="Times,serif" font-size="14.00">hello&#45;2.12.2.drv</text>
</g>
<!-- 4yhilws0cd5906ifrj766adnqh4f8ybc&#45;hello&#45;2.12.2.tar.gz.drv -->
<g id="node2" class="node">
<title>4yhilws0cd5906ifrj766adnqh4f8ybc&#45;hello&#45;2.12.2.tar.gz.drv</title>
<polygon fill="#ff0000" stroke="black" points="194.85,-108 21.35,-108 21.35,-72 194.85,-72 194.85,-108"/>
<text text-anchor="middle" x="108.1" y="-85.33" font-family="Times,serif" font-size="14.00">hello&#45;2.12.2.tar.gz.drv</text>
</g>
<!-- 4yhilws0cd5906ifrj766adnqh4f8ybc&#45;hello&#45;2.12.2.tar.gz.drv&#45;&gt;zvs7lrrhcqdk4cnhfr48ddypz32c8344&#45;hello&#45;2.12.2.drv -->
<g id="edge1" class="edge">
<title>4yhilws0cd5906ifrj766adnqh4f8ybc&#45;hello&#45;2.12.2.tar.gz.drv&#45;&gt;zvs7lrrhcqdk4cnhfr48ddypz32c8344&#45;hello&#45;2.12.2.drv</title>
<path fill="none" stroke="black" d="M148.56,-71.52C170,-62.25 196.54,-50.78 219.35,-40.93"/>
<polygon fill="black" stroke="black" points="220.69,-44.16 228.48,-36.98 217.91,-37.74 220.69,-44.16"/>
</g>
<!-- dkd7x68qnzz99f3dvmf50ig8xwpvaax8&#45;version&#45;check&#45;hook.drv -->
<g id="node3" class="node">
<title>dkd7x68qnzz99f3dvmf50ig8xwpvaax8&#45;version&#45;check&#45;hook.drv</title>
<polygon fill="#ff0000" stroke="black" points="581.22,-108 400.97,-108 400.97,-72 581.22,-72 581.22,-108"/>
<text text-anchor="middle" x="491.1" y="-85.33" font-family="Times,serif" font-size="14.00">version&#45;check&#45;hook.drv</text>
</g>
<!-- dkd7x68qnzz99f3dvmf50ig8xwpvaax8&#45;version&#45;check&#45;hook.drv&#45;&gt;zvs7lrrhcqdk4cnhfr48ddypz32c8344&#45;hello&#45;2.12.2.drv -->
<g id="edge2" class="edge">
<title>dkd7x68qnzz99f3dvmf50ig8xwpvaax8&#45;version&#45;check&#45;hook.drv&#45;&gt;zvs7lrrhcqdk4cnhfr48ddypz32c8344&#45;hello&#45;2.12.2.drv</title>
<path fill="none" stroke="red" d="M435.9,-71.52C405.46,-61.88 367.48,-49.84 335.55,-39.73"/>
<polygon fill="red" stroke="red" points="337.01,-36.52 326.42,-36.84 334.89,-43.2 337.01,-36.52"/>
</g>
<!-- l622p70vy8k5sh7y5wizi5f2mic6ynpg&#45;source&#45;stdenv.sh -->
<g id="node4" class="node">
<title>l622p70vy8k5sh7y5wizi5f2mic6ynpg&#45;source&#45;stdenv.sh</title>
<polygon fill="#ff0000" stroke="black" points="268.35,-252 133.85,-252 133.85,-216 268.35,-216 268.35,-252"/>
<text text-anchor="middle" x="201.1" y="-229.32" font-family="Times,serif" font-size="14.00">source&#45;stdenv.sh</text>
</g>
<!-- l622p70vy8k5sh7y5wizi5f2mic6ynpg&#45;source&#45;stdenv.sh&#45;&gt;zvs7lrrhcqdk4cnhfr48ddypz32c8344&#45;hello&#45;2.12.2.drv -->
<g id="edge3" class="edge">
<title>l622p70vy8k5sh7y5wizi5f2mic6ynpg&#45;source&#45;stdenv.sh&#45;&gt;zvs7lrrhcqdk4cnhfr48ddypz32c8344&#45;hello&#45;2.12.2.drv</title>
<path fill="none" stroke="green" d="M150.13,-215.55C78.64,-188.37 -37.41,-132.71 12.1,-72 34.78,-44.18 126.69,-30.55 194.38,-24.17"/>
<polygon fill="green" stroke="green" points="194.29,-27.69 203.93,-23.3 193.66,-20.72 194.29,-27.69"/>
</g>
<!-- l622p70vy8k5sh7y5wizi5f2mic6ynpg&#45;source&#45;stdenv.sh&#45;&gt;4yhilws0cd5906ifrj766adnqh4f8ybc&#45;hello&#45;2.12.2.tar.gz.drv -->
<g id="edge4" class="edge">
<title>l622p70vy8k5sh7y5wizi5f2mic6ynpg&#45;source&#45;stdenv.sh&#45;&gt;4yhilws0cd5906ifrj766adnqh4f8ybc&#45;hello&#45;2.12.2.tar.gz.drv</title>
<path fill="none" stroke="blue" d="M189.69,-215.59C173.64,-191.08 144.24,-146.19 125.46,-117.52"/>
<polygon fill="blue" stroke="blue" points="128.54,-115.82 120.13,-109.38 122.68,-119.66 128.54,-115.82"/>
</g>
<!-- l622p70vy8k5sh7y5wizi5f2mic6ynpg&#45;source&#45;stdenv.sh&#45;&gt;dkd7x68qnzz99f3dvmf50ig8xwpvaax8&#45;version&#45;check&#45;hook.drv -->
<g id="edge5" class="edge">
<title>l622p70vy8k5sh7y5wizi5f2mic6ynpg&#45;source&#45;stdenv.sh&#45;&gt;dkd7x68qnzz99f3dvmf50ig8xwpvaax8&#45;version&#45;check&#45;hook.drv</title>
<path fill="none" stroke="red" d="M246.65,-215.55C271.34,-205.74 302.21,-192.9 329.1,-180 372.09,-159.36 419.77,-132.69 452.2,-113.95"/>
<polygon fill="red" stroke="red" points="453.55,-117.21 460.44,-109.16 450.04,-111.15 453.55,-117.21"/>
</g>
<!-- vwmk63kc9sysjif65h7fdwnqr5h8jfm6&#45;bash&#45;5.3p3.drv -->
<g id="node5" class="node">
<title>vwmk63kc9sysjif65h7fdwnqr5h8jfm6&#45;bash&#45;5.3p3.drv</title>
<polygon fill="#ff0000" stroke="black" points="319.72,-180 196.47,-180 196.47,-144 319.72,-144 319.72,-180"/>
<text text-anchor="middle" x="258.1" y="-157.32" font-family="Times,serif" font-size="14.00">bash&#45;5.3p3.drv</text>
</g>
<!-- l622p70vy8k5sh7y5wizi5f2mic6ynpg&#45;source&#45;stdenv.sh&#45;&gt;vwmk63kc9sysjif65h7fdwnqr5h8jfm6&#45;bash&#45;5.3p3.drv -->
<g id="edge6" class="edge">
<title>l622p70vy8k5sh7y5wizi5f2mic6ynpg&#45;source&#45;stdenv.sh&#45;&gt;vwmk63kc9sysjif65h7fdwnqr5h8jfm6&#45;bash&#45;5.3p3.drv</title>
<path fill="none" stroke="green" d="M215.19,-215.7C221.74,-207.64 229.68,-197.89 236.94,-188.98"/>
<polygon fill="green" stroke="green" points="239.61,-191.24 243.21,-181.28 234.18,-186.82 239.61,-191.24"/>
</g>
<!-- vwmk63kc9sysjif65h7fdwnqr5h8jfm6&#45;bash&#45;5.3p3.drv&#45;&gt;zvs7lrrhcqdk4cnhfr48ddypz32c8344&#45;hello&#45;2.12.2.drv -->
<g id="edge11" class="edge">
<title>vwmk63kc9sysjif65h7fdwnqr5h8jfm6&#45;bash&#45;5.3p3.drv&#45;&gt;zvs7lrrhcqdk4cnhfr48ddypz32c8344&#45;hello&#45;2.12.2.drv</title>
<path fill="none" stroke="burlywood" d="M250.73,-143.8C244.01,-125.77 235.98,-96.69 242.1,-72 244.29,-63.15 248.26,-54.15 252.54,-46.14"/>
<polygon fill="burlywood" stroke="burlywood" points="255.51,-48 257.46,-37.59 249.44,-44.51 255.51,-48"/>
</g>
<!-- vwmk63kc9sysjif65h7fdwnqr5h8jfm6&#45;bash&#45;5.3p3.drv&#45;&gt;4yhilws0cd5906ifrj766adnqh4f8ybc&#45;hello&#45;2.12.2.tar.gz.drv -->
<g id="edge12" class="edge">
<title>vwmk63kc9sysjif65h7fdwnqr5h8jfm6&#45;bash&#45;5.3p3.drv&#45;&gt;4yhilws0cd5906ifrj766adnqh4f8ybc&#45;hello&#45;2.12.2.tar.gz.drv</title>
<path fill="none" stroke="burlywood" d="M220.63,-143.52C200.96,-134.34 176.65,-122.99 155.66,-113.2"/>
<polygon fill="burlywood" stroke="burlywood" points="157.26,-110.08 146.71,-109.02 154.3,-116.42 157.26,-110.08"/>
</g>
<!-- vwmk63kc9sysjif65h7fdwnqr5h8jfm6&#45;bash&#45;5.3p3.drv&#45;&gt;dkd7x68qnzz99f3dvmf50ig8xwpvaax8&#45;version&#45;check&#45;hook.drv -->
<g id="edge13" class="edge">
<title>vwmk63kc9sysjif65h7fdwnqr5h8jfm6&#45;bash&#45;5.3p3.drv&#45;&gt;dkd7x68qnzz99f3dvmf50ig8xwpvaax8&#45;version&#45;check&#45;hook.drv</title>
<path fill="none" stroke="blue" d="M316.29,-143.52C348.52,-133.83 388.78,-121.74 422.53,-111.6"/>
<polygon fill="blue" stroke="blue" points="423.22,-115.05 431.79,-108.82 421.21,-108.34 423.22,-115.05"/>
</g>
<!-- pnjvpwgka59d6fwpp9fnz42ll2ai4ffm&#45;stdenv&#45;linux.drv -->
<g id="node6" class="node">
<title>pnjvpwgka59d6fwpp9fnz42ll2ai4ffm&#45;stdenv&#45;linux.drv</title>
<polygon fill="#ff0000" stroke="black" points="383.22,-108 250.97,-108 250.97,-72 383.22,-72 383.22,-108"/>
<text text-anchor="middle" x="317.1" y="-85.33" font-family="Times,serif" font-size="14.00">stdenv&#45;linux.drv</text>
</g>
<!-- vwmk63kc9sysjif65h7fdwnqr5h8jfm6&#45;bash&#45;5.3p3.drv&#45;&gt;pnjvpwgka59d6fwpp9fnz42ll2ai4ffm&#45;stdenv&#45;linux.drv -->
<g id="edge14" class="edge">
<title>vwmk63kc9sysjif65h7fdwnqr5h8jfm6&#45;bash&#45;5.3p3.drv&#45;&gt;pnjvpwgka59d6fwpp9fnz42ll2ai4ffm&#45;stdenv&#45;linux.drv</title>
<path fill="none" stroke="green" d="M272.68,-143.7C279.54,-135.56 287.86,-125.69 295.43,-116.7"/>
<polygon fill="green" stroke="green" points="297.94,-119.16 301.7,-109.26 292.58,-114.65 297.94,-119.16"/>
</g>
<!-- pnjvpwgka59d6fwpp9fnz42ll2ai4ffm&#45;stdenv&#45;linux.drv&#45;&gt;zvs7lrrhcqdk4cnhfr48ddypz32c8344&#45;hello&#45;2.12.2.drv -->
<g id="edge7" class="edge">
<title>pnjvpwgka59d6fwpp9fnz42ll2ai4ffm&#45;stdenv&#45;linux.drv&#45;&gt;zvs7lrrhcqdk4cnhfr48ddypz32c8344&#45;hello&#45;2.12.2.drv</title>
<path fill="none" stroke="blue" d="M305.48,-71.7C300.19,-63.81 293.8,-54.3 287.92,-45.55"/>
<polygon fill="blue" stroke="blue" points="290.9,-43.71 282.42,-37.36 285.09,-47.61 290.9,-43.71"/>
</g>
<!-- shkw4qm9qcw5sc5n1k5jznc83ny02r39&#45;default&#45;builder.sh -->
<g id="node7" class="node">
<title>shkw4qm9qcw5sc5n1k5jznc83ny02r39&#45;default&#45;builder.sh</title>
<polygon fill="#ff0000" stroke="black" points="561.72,-252 420.47,-252 420.47,-216 561.72,-216 561.72,-252"/>
<text text-anchor="middle" x="491.1" y="-229.32" font-family="Times,serif" font-size="14.00">default&#45;builder.sh</text>
</g>
<!-- shkw4qm9qcw5sc5n1k5jznc83ny02r39&#45;default&#45;builder.sh&#45;&gt;zvs7lrrhcqdk4cnhfr48ddypz32c8344&#45;hello&#45;2.12.2.drv -->
<g id="edge8" class="edge">
<title>shkw4qm9qcw5sc5n1k5jznc83ny02r39&#45;default&#45;builder.sh&#45;&gt;zvs7lrrhcqdk4cnhfr48ddypz32c8344&#45;hello&#45;2.12.2.drv</title>
<path fill="none" stroke="magenta" d="M515.81,-215.65C556.74,-184.86 630.31,-119.42 590.1,-72 559.41,-35.81 430.48,-24.3 345.93,-20.66"/>
<polygon fill="magenta" stroke="magenta" points="346.21,-17.17 336.08,-20.27 345.93,-24.16 346.21,-17.17"/>
</g>
<!-- shkw4qm9qcw5sc5n1k5jznc83ny02r39&#45;default&#45;builder.sh&#45;&gt;dkd7x68qnzz99f3dvmf50ig8xwpvaax8&#45;version&#45;check&#45;hook.drv -->
<g id="edge9" class="edge">
<title>shkw4qm9qcw5sc5n1k5jznc83ny02r39&#45;default&#45;builder.sh&#45;&gt;dkd7x68qnzz99f3dvmf50ig8xwpvaax8&#45;version&#45;check&#45;hook.drv</title>
<path fill="none" stroke="green" d="M491.1,-215.59C491.1,-191.61 491.1,-148.14 491.1,-119.42"/>
<polygon fill="green" stroke="green" points="494.6,-119.62 491.1,-109.62 487.6,-119.62 494.6,-119.62"/>
</g>
<!-- shkw4qm9qcw5sc5n1k5jznc83ny02r39&#45;default&#45;builder.sh&#45;&gt;vwmk63kc9sysjif65h7fdwnqr5h8jfm6&#45;bash&#45;5.3p3.drv -->
<g id="edge10" class="edge">
<title>shkw4qm9qcw5sc5n1k5jznc83ny02r39&#45;default&#45;builder.sh&#45;&gt;vwmk63kc9sysjif65h7fdwnqr5h8jfm6&#45;bash&#45;5.3p3.drv</title>
<path fill="none" stroke="burlywood" d="M432.9,-215.52C400.67,-205.83 360.42,-193.74 326.66,-183.6"/>
<polygon fill="burlywood" stroke="burlywood" points="327.99,-180.34 317.4,-180.82 325.97,-187.05 327.99,-180.34"/>
</g>
</g>
</svg>
