<?xml version="1.0" encoding="UTF-8" standalone="no"?>
<!DOCTYPE svg PUBLIC "-//W3C//DTD SVG 1.1//EN"
 "http://www.w3.org/Graphics/SVG/1.1/DTD/svg11.dtd">
<!-- Generated by graphviz version 12.2.1 (0)
 -->
<!-- Title: G Pages: 1 -->
<svg width="416pt" height="260pt"
 viewBox="0.00 0.00 416.00 260.00" xmlns="http://www.w3.org/2000/svg" xmlns:xlink="http://www.w3.org/1999/xlink">
<g id="graph0" class="graph" transform="scale(1 1) rotate(0) translate(4 256)">
<title>G</title>
<!-- hello -->
<g id="node1" class="node">
<title>hello</title>
<path fill="#a8d5e5" stroke="black" d="M224,-252C224,-252 136,-252 136,-252 130,-252 124,-246 124,-240 124,-240 124,-228 124,-228 124,-222 130,-216 136,-216 136,-216 224,-216 224,-216 230,-216 236,-222 236,-228 236,-228 236,-240 236,-240 236,-246 230,-252 224,-252"/>
<text text-anchor="middle" x="180" y="-230.88" font-family="monospace" font-size="10.00">hello&#45;2.12.1.drv</text>
</g>
<!-- bash -->
<g id="node2" class="node">
<title>bash</title>
<path fill="#e8f4f8" stroke="black" d="M94,-180C94,-180 12,-180 12,-180 6,-180 0,-174 0,-168 0,-168 0,-156 0,-156 0,-150 6,-144 12,-144 12,-144 94,-144 94,-144 100,-144 106,-150 106,-156 106,-156 106,-168 106,-168 106,-174 100,-180 94,-180"/>
<text text-anchor="middle" x="53" y="-158.88" font-family="monospace" font-size="10.00">bash&#45;5.2p37.drv</text>
</g>
<!-- hello&#45;&gt;bash -->
<g id="edge1" class="edge">
<title>hello&#45;&gt;bash</title>
<path fill="none" stroke="#666666" d="M148.28,-215.52C131.94,-206.51 111.83,-195.42 94.29,-185.76"/>
<polygon fill="#666666" stroke="#666666" points="96.09,-182.75 85.64,-180.99 92.71,-188.88 96.09,-182.75"/>
</g>
<!-- stdenv -->
<g id="node3" class="node">
<title>stdenv</title>
<path fill="#e8f4f8" stroke="black" d="M224,-180C224,-180 136,-180 136,-180 130,-180 124,-174 124,-168 124,-168 124,-156 124,-156 124,-150 130,-144 136,-144 136,-144 224,-144 224,-144 230,-144 236,-150 236,-156 236,-156 236,-168 236,-168 236,-174 230,-180 224,-180"/>
<text text-anchor="middle" x="180" y="-158.88" font-family="monospace" font-size="10.00">stdenv&#45;linux.drv</text>
</g>
<!-- hello&#45;&gt;stdenv -->
<g id="edge2" class="edge">
<title>hello&#45;&gt;stdenv</title>
<path fill="none" stroke="#666666" d="M180,-215.7C180,-208.41 180,-199.73 180,-191.54"/>
<polygon fill="#666666" stroke="#666666" points="183.5,-191.62 180,-181.62 176.5,-191.62 183.5,-191.62"/>
</g>
<!-- src -->
<g id="node4" class="node">
<title>src</title>
<path fill="#e8f4f8" stroke="black" d="M396,-180C396,-180 266,-180 266,-180 260,-180 254,-174 254,-168 254,-168 254,-156 254,-156 254,-150 260,-144 266,-144 266,-144 396,-144 396,-144 402,-144 408,-150 408,-156 408,-156 408,-168 408,-168 408,-174 402,-180 396,-180"/>
<text text-anchor="middle" x="331" y="-158.88" font-family="monospace" font-size="10.00">hello&#45;2.12.1.tar.gz.drv</text>
</g>
<!-- hello&#45;&gt;src -->
<g id="edge3" class="edge">
<title>hello&#45;&gt;src</title>
<path fill="none" stroke="#666666" d="M217.71,-215.52C237.52,-206.34 261.99,-194.99 283.12,-185.2"/>
<polygon fill="#666666" stroke="#666666" points="284.53,-188.4 292.13,-181.02 281.59,-182.05 284.53,-188.4"/>
</g>
<!-- gcc -->
<g id="node5" class="node">
<title>gcc</title>
<path fill="#e8f4f8" stroke="black" d="M166,-108C166,-108 42,-108 42,-108 36,-108 30,-102 30,-96 30,-96 30,-84 30,-84 30,-78 36,-72 42,-72 42,-72 166,-72 166,-72 172,-72 178,-78 178,-84 178,-84 178,-96 178,-96 178,-102 172,-108 166,-108"/>
<text text-anchor="middle" x="104" y="-86.88" font-family="monospace" font-size="10.00">gcc&#45;wrapper&#45;14.2.1.drv</text>
</g>
<!-- stdenv&#45;&gt;gcc -->
<g id="edge4" class="edge">
<title>stdenv&#45;&gt;gcc</title>
<path fill="none" stroke="#666666" d="M161.21,-143.7C152.17,-135.37 141.16,-125.22 131.22,-116.07"/>
<polygon fill="#666666" stroke="#666666" points="133.67,-113.57 123.95,-109.37 128.93,-118.72 133.67,-113.57"/>
</g>
<!-- coreutils -->
<g id="node7" class="node">
<title>coreutils</title>
<path fill="#e8f4f8" stroke="black" d="M302,-108C302,-108 208,-108 208,-108 202,-108 196,-102 196,-96 196,-96 196,-84 196,-84 196,-78 202,-72 208,-72 208,-72 302,-72 302,-72 308,-72 314,-78 314,-84 314,-84 314,-96 314,-96 314,-102 308,-108 302,-108"/>
<text text-anchor="middle" x="255" y="-86.88" font-family="monospace" font-size="10.00">coreutils&#45;9.5.drv</text>
</g>
<!-- stdenv&#45;&gt;coreutils -->
<g id="edge5" class="edge">
<title>stdenv&#45;&gt;coreutils</title>
<path fill="none" stroke="#666666" d="M198.54,-143.7C207.46,-135.37 218.33,-125.22 228.14,-116.07"/>
<polygon fill="#666666" stroke="#666666" points="230.39,-118.76 235.31,-109.38 225.61,-113.64 230.39,-118.76"/>
</g>
<!-- glibc -->
<g id="node6" class="node">
<title>glibc</title>
<path fill="#e8f4f8" stroke="black" d="M217,-36C217,-36 141,-36 141,-36 135,-36 129,-30 129,-24 129,-24 129,-12 129,-12 129,-6 135,0 141,0 141,0 217,0 217,0 223,0 229,-6 229,-12 229,-12 229,-24 229,-24 229,-30 223,-36 217,-36"/>
<text text-anchor="middle" x="179" y="-14.88" font-family="monospace" font-size="10.00">glibc&#45;2.40.drv</text>
</g>
<!-- gcc&#45;&gt;glibc -->
<g id="edge6" class="edge">
<title>gcc&#45;&gt;glibc</title>
<path fill="none" stroke="#666666" d="M122.54,-71.7C131.46,-63.37 142.33,-53.22 152.14,-44.07"/>
<polygon fill="#666666" stroke="#666666" points="154.39,-46.76 159.31,-37.38 149.61,-41.64 154.39,-46.76"/>
</g>
<!-- coreutils&#45;&gt;glibc -->
<g id="edge7" class="edge">
<title>coreutils&#45;&gt;glibc</title>
<path fill="none" stroke="#666666" d="M236.21,-71.7C227.17,-63.37 216.16,-53.22 206.22,-44.07"/>
<polygon fill="#666666" stroke="#666666" points="208.67,-41.57 198.95,-37.37 203.93,-46.72 208.67,-41.57"/>
</g>
</g>
</svg>
